<?xml version="1.0" encoding="utf-8"?>
<!-- Generator: Adobe Illustrator 23.0.2, SVG Export Plug-In . SVG Version: 6.00 Build 0)  -->
<svg version="1.1" id="Capa_1" xmlns="http://www.w3.org/2000/svg" xmlns:xlink="http://www.w3.org/1999/xlink" x="0px" y="0px"
	 viewBox="0 0 622 157" style="enable-background:new 0 0 622 157;" xml:space="preserve">
<style type="text/css">
	.st0{fill:#FFFFFF;}
</style>
<g>
	<path class="st0" d="M609.9,129.8c-0.6,1-1.5,1.1-2.3,1.3c-4.8,1.2-9.8,1.6-14.7,2.1c-21.9,2-44,3-66,4.2c-19.9,1-39.8,2-59.7,3
		c-17.1,0.9-34.1,1.8-51.2,2.9c-17.7,1.1-35.4,2.5-53.1,3.9c-17.8,1.4-35.5,2.9-53.3,4.3c-15.1,1.2-30.1,2.8-45.2,2.4
		c-8.8-0.2-17.7-0.9-26.3-3.4c-1.3-0.4-2.7-0.5-3.4-1.9c0.6-1.3,1.8-1.5,2.9-1.8c4.5-1.2,9.1-1.8,13.7-2.2c18.9-1.9,37.9-3,56.8-4.2
		c18.4-1.1,36.8-2.3,55.2-3.3c21.6-1.3,43.2-2.5,64.9-3.7c17.6-1,35.2-2,52.8-3c21.6-1.2,43.1-2.2,64.7-3.4
		c13.7-0.7,27.3-1.4,41-0.9c6.6,0.2,13.1,0.5,19.5,2.1C607.7,128.4,609,128.5,609.9,129.8z"/>
	<g>
		<path class="st0" d="M82.2,38.6c0,26.8-21.7,44.8-44.4,44.8c-5.9,0-12.6-0.9-16.3-2.3c-2.3,10-4.6,21-7,33.1
			c-0.5,2.1-0.6,4.6-4.4,4.6c-2.9,0-7.1-2-7.1-5.9c0-11.1,17.5-76.2,23.1-98.5c-3.3,0.8-7,2.3-10,4.4c-2.6,2-4.6,3-5.9,3
			c-1.7,0-2.7-1.4-2.6-3.3C8,8.2,28.1,2.7,40.3,2.7C60.3,2.7,82.2,11.2,82.2,38.6z M69.3,43c0-19.5-12.9-29.9-29.2-30.2
			c-5.2,16-10.6,34.4-16.4,59c4.9,1.7,10.3,2.1,14.1,2.1C52.7,73.8,69.3,63.2,69.3,43z"/>
		<path class="st0" d="M135.9,43.6c0,4.4-3.5,7.8-6.7,7.8c-8.1-2.9-15.2-0.8-21.4,7.1c-7.8,9.9-12.2,27.7-15.8,51.2
			c-7.4,0.9-10.6-4.1-10.6-10.9c0-11.9,8.4-44.5,13.2-61.3c1.2-0.3,2.3-0.5,3.2-0.5c6.7,0,6.5,7.8,3.6,19.5
			c7-12.2,17.5-19.9,26.4-19.9C133.7,36.6,135.9,39.9,135.9,43.6z"/>
		<path class="st0" d="M126.9,88.3c0-26.4,20.4-53.5,45.1-53.5c14.3,0,23,9.4,23,24.8c0,24.5-21.7,51.5-47.3,51.5
			C134.8,111.1,126.9,102.3,126.9,88.3z M184.7,61.2c0-8.2-4-15-12.9-15c-20.2,0-31.5,26.8-31.5,41.5c0,9,3.3,13.7,10.2,13.7
			C168.6,101.3,184.7,77.6,184.7,61.2z"/>
		<path class="st0" d="M247.8,13.3c-4,14-7.1,28-10,42c8.2-1.2,19.3-3.5,28-3.5c9,0,12.3,3.8,10,11.2l-0.3,0.2
			c-0.9-0.3-1.8-0.5-2.7-0.6c-11.7-1.8-25.7,1.1-37.1,3.3c-2.7,14.9-5.3,29.8-7.9,44.7c-1.4,1.1-5.6,2.1-8.2,2.1
			c-3.8,0-3.6-3.6-3.2-7c0.8-7.1,4-20.4,7.3-37.7c-2.1,0.3-4,0.3-5.5,0.2c-4.3-0.6-6.1-3.6-5.3-9c5.3-0.6,9.3-1.2,12.8-1.8
			c2.6-12.9,5.8-24,8.8-40.9c-4.3,1.2-8.7,2.9-13.5,4.9c-6.7,2.7-10.5-2.9-9.3-7.3C226,6.2,246.1,2.2,265.7,2.2
			c14.9,0,31.8,3.3,26.4,15.8c-5.8-2.7-11.6-4.3-18.1-5C264.5,12.1,256.4,12,247.8,13.3z"/>
		<path class="st0" d="M340.3,85.4c-0.2,8.1,0.9,13.7,4.9,19.8c-1.4,2.6-4.6,5-7.4,5c-9.9,0-13.7-12.5-8.2-38.5
			c-11.4,23.4-24.3,38.9-38.6,38.9c-7.9,0-12.3-6.1-12.3-17.6c0-18.5,11.1-47.7,17-57.8c6.2,0.3,8.4,3.3,8.4,7
			c0,5.9-12,27.1-12,45.1c0,6.1,1.5,10.8,4.9,10.8c14.4,0,32.8-44.1,38.8-56.5c1.2-2.4,4-6.7,7.4-6.5c3,0,6.5,5.8,6.2,7.6
			C347.9,49.5,341.4,60.5,340.3,85.4z"/>
		<path class="st0" d="M389.4,46c-4.3,16.7-8.2,34.4-8.2,45c0,4.4,0,11.1,8.8,11.1c5.8,0,12.9-3.3,21.6-11.7
			c2.6,0.5,4.6,2.1,4.6,4.1c0,0.9-0.5,1.5-1.1,2.4c-7.3,11.2-21.3,16.4-30.9,16.4c-10.2,0-16.1-5.9-16.1-19.5
			c0-7.4,3.8-26.9,8.2-46.2c-7.6,1.5-15.7,3.8-19.3,3.8c-3.3,0-3.8-2.6-3.6-5.8c0.2-7.1,14.3-8.8,25.8-9.7
			c3.5-14.1,7.1-26.6,9.4-32.1c0.5-0.3,1.2-0.5,2.1-0.5c6.8,0,7.4,5.9,7.4,7.9c0,2.7-2.1,9-3.2,13.2l-2.9,10.8
			c27.5-0.8,35,1.7,31.8,11.1C414.8,44.8,400.7,45.1,389.4,46z"/>
		<path class="st0" d="M486.6,85.4c-0.2,8.1,0.9,13.7,4.9,19.8c-1.4,2.6-4.6,5-7.4,5c-9.9,0-13.7-12.5-8.2-38.5
			c-11.4,23.4-24.3,38.9-38.6,38.9c-7.9,0-12.3-6.1-12.3-17.6c0-18.5,11.1-47.7,17-57.8c6.2,0.3,8.4,3.3,8.4,7
			c0,5.9-12,27.1-12,45.1c0,6.1,1.5,10.8,4.9,10.8c14.4,0,32.8-44.1,38.8-56.5c1.2-2.4,4-6.7,7.4-6.5c3,0,6.5,5.8,6.2,7.6
			C494.2,49.5,487.6,60.5,486.6,85.4z"/>
		<path class="st0" d="M559.4,43.6c0,4.4-3.5,7.8-6.7,7.8c-8.1-2.9-15.2-0.8-21.4,7.1c-7.8,9.9-12.2,27.7-15.8,51.2
			c-7.4,0.9-10.6-4.1-10.6-10.9c0-11.9,8.4-44.5,13.2-61.3c1.2-0.3,2.3-0.5,3.2-0.5c6.7,0,6.5,7.8,3.6,19.5
			c7-12.2,17.5-19.9,26.4-19.9C557.2,36.6,559.4,39.9,559.4,43.6z"/>
		<path class="st0" d="M550.4,88.3c0-26.4,20.4-53.5,45.1-53.5c14.3,0,23,9.4,23,24.8c0,24.5-21.7,51.5-47.3,51.5
			C558.3,111.1,550.4,102.3,550.4,88.3z M608.2,61.2c0-8.2-4-15-12.9-15c-20.2,0-31.5,26.8-31.5,41.5c0,9,3.3,13.7,10.2,13.7
			C592.1,101.3,608.2,77.6,608.2,61.2z"/>
	</g>
</g>
</svg>
