<svg xmlns="http://www.w3.org/2000/svg" viewBox="0,0,807,398" width="807" height="398"><g><g transform="translate(44,0)"><rect x="2" y="225" width="26" height="153" fill="#109618"></rect><rect x="29" y="225" width="26" height="153" fill="#dc3912"></rect></g><g transform="translate(107,0)"><rect x="2" y="194" width="26" height="184" fill="#109618"></rect><rect x="29" y="194" width="26" height="184" fill="#dc3912"></rect></g><g transform="translate(170,0)"><rect x="2" y="163" width="26" height="215" fill="#109618"></rect><rect x="29" y="163" width="26" height="215" fill="#dc3912"></rect></g><g transform="translate(233,0)"><rect x="2" y="194" width="26" height="184" fill="#109618"></rect><rect x="29" y="194" width="26" height="184" fill="#dc3912"></rect></g><g transform="translate(296,0)"><rect x="2" y="133" width="26" height="245" fill="#109618"></rect><rect x="29" y="133" width="26" height="245" fill="#dc3912"></rect></g><g transform="translate(359,0)"><rect x="2" y="102" width="26" height="276" fill="#109618"></rect><rect x="29" y="102" width="26" height="276" fill="#dc3912"></rect></g><g transform="translate(422,0)"><rect x="2" y="96" width="26" height="282" fill="#109618"></rect><rect x="29" y="96" width="26" height="282" fill="#dc3912"></rect></g><g transform="translate(485,0)"><rect x="2" y="87" width="26" height="291" fill="#109618"></rect><rect x="29" y="87" width="26" height="291" fill="#dc3912"></rect></g><g transform="translate(548,0)"><rect x="2" y="71" width="26" height="307" fill="#109618"></rect><rect x="29" y="102" width="26" height="276" fill="#dc3912"></rect></g><g transform="translate(611,0)"><rect x="2" y="41" width="26" height="337" fill="#109618"></rect><rect x="29" y="225" width="26" height="153" fill="#dc3912"></rect></g><g transform="translate(674,0)"><rect x="2" y="10" width="26" height="368" fill="#109618"></rect><rect x="29" y="286" width="26" height="92" fill="#dc3912"></rect></g><g transform="translate(737,0)"><rect x="2" y="332" width="26" height="46" fill="#109618"></rect><rect x="29" y="375" width="26" height="3" fill="#dc3912"></rect></g></g><g transform="translate(0,378)" fill="none" font-size="10" font-family="sans-serif" text-anchor="middle"><g class="tick" opacity="1" transform="translate(72.5,0)"><line stroke="currentColor" y2="6"></line><text fill="currentColor" y="9" dy="0.71em">2010</text></g><g class="tick" opacity="1" transform="translate(135.5,0)"><line stroke="currentColor" y2="6"></line><text fill="currentColor" y="9" dy="0.71em">2011</text></g><g class="tick" opacity="1" transform="translate(198.5,0)"><line stroke="currentColor" y2="6"></line><text fill="currentColor" y="9" dy="0.71em">2012</text></g><g class="tick" opacity="1" transform="translate(261.5,0)"><line stroke="currentColor" y2="6"></line><text fill="currentColor" y="9" dy="0.71em">2013</text></g><g class="tick" opacity="1" transform="translate(324.5,0)"><line stroke="currentColor" y2="6"></line><text fill="currentColor" y="9" dy="0.71em">2014</text></g><g class="tick" opacity="1" transform="translate(387.5,0)"><line stroke="currentColor" y2="6"></line><text fill="currentColor" y="9" dy="0.71em">2015</text></g><g class="tick" opacity="1" transform="translate(450.5,0)"><line stroke="currentColor" y2="6"></line><text fill="currentColor" y="9" dy="0.71em">2016</text></g><g class="tick" opacity="1" transform="translate(513.5,0)"><line stroke="currentColor" y2="6"></line><text fill="currentColor" y="9" dy="0.71em">2017</text></g><g class="tick" opacity="1" transform="translate(576.5,0)"><line stroke="currentColor" y2="6"></line><text fill="currentColor" y="9" dy="0.71em">2018</text></g><g class="tick" opacity="1" transform="translate(639.5,0)"><line stroke="currentColor" y2="6"></line><text fill="currentColor" y="9" dy="0.71em">2019</text></g><g class="tick" opacity="1" transform="translate(702.5,0)"><line stroke="currentColor" y2="6"></line><text fill="currentColor" y="9" dy="0.71em">2020</text></g><g class="tick" opacity="1" transform="translate(765.5,0)"><line stroke="currentColor" y2="6"></line><text fill="currentColor" y="9" dy="0.71em">2021</text></g></g><g transform="translate(40,0)" fill="none" font-size="10" font-family="sans-serif" text-anchor="end"><g class="tick" opacity="1" transform="translate(0,378.5)"><line stroke="currentColor" x2="-6"></line><text fill="currentColor" x="-9" dy="0.32em">0</text></g><g class="tick" opacity="1" transform="translate(0,347.5)"><line stroke="currentColor" x2="-6"></line><text fill="currentColor" x="-9" dy="0.32em">10</text></g><g class="tick" opacity="1" transform="translate(0,317.5)"><line stroke="currentColor" x2="-6"></line><text fill="currentColor" x="-9" dy="0.32em">20</text></g><g class="tick" opacity="1" transform="translate(0,286.5)"><line stroke="currentColor" x2="-6"></line><text fill="currentColor" x="-9" dy="0.32em">30</text></g><g class="tick" opacity="1" transform="translate(0,255.5)"><line stroke="currentColor" x2="-6"></line><text fill="currentColor" x="-9" dy="0.32em">40</text></g><g class="tick" opacity="1" transform="translate(0,225.5)"><line stroke="currentColor" x2="-6"></line><text fill="currentColor" x="-9" dy="0.32em">50</text></g><g class="tick" opacity="1" transform="translate(0,194.5)"><line stroke="currentColor" x2="-6"></line><text fill="currentColor" x="-9" dy="0.32em">60</text></g><g class="tick" opacity="1" transform="translate(0,163.5)"><line stroke="currentColor" x2="-6"></line><text fill="currentColor" x="-9" dy="0.32em">70</text></g><g class="tick" opacity="1" transform="translate(0,133.5)"><line stroke="currentColor" x2="-6"></line><text fill="currentColor" x="-9" dy="0.32em">80</text></g><g class="tick" opacity="1" transform="translate(0,102.5)"><line stroke="currentColor" x2="-6"></line><text fill="currentColor" x="-9" dy="0.32em">90</text></g><g class="tick" opacity="1" transform="translate(0,71.5)"><line stroke="currentColor" x2="-6"></line><text fill="currentColor" x="-9" dy="0.32em">100</text></g><g class="tick" opacity="1" transform="translate(0,41.5)"><line stroke="currentColor" x2="-6"></line><text fill="currentColor" x="-9" dy="0.32em">110</text></g><g class="tick" opacity="1" transform="translate(0,10.5)"><line stroke="currentColor" x2="-6"></line><text fill="currentColor" x="-9" dy="0.32em">120</text><text fill="currentColor" x="3" dy="0.32em" text-anchor="start" font-weight="bold">Ejecución</text></g></g><g transform="translate(807,0)" text-anchor="end" font-family="sans-serif" font-size="10"><g transform="translate(0,0)"><rect x="-19" width="19" height="19" fill="#dc3912"></rect><text x="-24" y="9.5" dy="0.35em">Desarrollado</text></g><g transform="translate(0,20)"><rect x="-19" width="19" height="19" fill="#109618"></rect><text x="-24" y="9.5" dy="0.35em">Adjudicado</text></g></g></svg>